<svg width="219" height="123" viewBox="0 0 219 123" fill="none" xmlns="http://www.w3.org/2000/svg">
<path d="M166.333 47.016C168.985 46.707 172.507 47.3192 174.984 48.3964C180.328 50.7198 183.202 55.7727 183.604 61.447C183.753 63.5561 183.381 65.3569 184.033 67.4523C184.647 69.425 186.909 69.6783 187.298 70.6908C186.947 71.8546 184.764 71.6473 183.829 71.4964C185.516 73.7931 186.589 73.5135 188.974 74.6318C189.935 76.3947 185.715 77.1391 184.626 77.2188C181.521 77.446 179.368 76.62 177.05 74.6542C176.686 74.2916 176.181 73.6495 175.838 73.2397C171.132 78.5949 162.331 78.1942 157.112 73.842C150.756 68.542 150.585 58.0765 155.891 51.9994C158.53 48.976 162.358 47.3109 166.333 47.016ZM168.49 70.0003C172.799 69.578 175.96 65.7561 175.565 61.4443C175.17 57.1324 171.368 53.9479 167.054 54.3151C162.701 54.6857 159.481 58.5293 159.879 62.8803C160.277 67.2314 164.142 70.4265 168.49 70.0003Z" fill="url(#paint0_linear_43_2047)"/>
<path d="M51.3119 46.7842C59.5487 46.2226 66.955 50.3554 68.7294 58.7952C69.3885 61.9301 69.0476 65.1303 69.1283 68.3108C69.1722 70.0354 69.1811 71.8396 69.0863 73.5606C68.9274 75.3371 67.7485 76.6473 66.0243 76.9888C64.969 77.2038 63.8718 76.9801 62.9849 76.3692C61.843 75.5903 61.5716 74.5395 61.33 73.2882C58.6045 76.2376 55.3292 77.5428 51.292 77.2538C50.4378 77.197 49.4959 77.0976 48.6583 76.9273C45.0616 76.2026 41.9077 74.0611 39.9073 70.9853C38.3805 68.6689 37.1081 64.8103 37.5709 61.973C37.8087 60.5153 38.9406 59.7797 40.114 59.037C39.1899 59.3036 37.1892 59.9748 36.5868 59.0425C36.4534 58.2137 37.1494 56.9151 37.5082 56.0939C40.0431 56.1329 41.107 55.7563 43.0908 54.1731C42.031 54.4595 39.5227 55.0768 38.9059 53.9146C38.8844 53.3362 39.1293 52.9338 39.5104 52.5079C42.5256 49.1393 46.8596 47.1331 51.3119 46.7842ZM53.5025 70.1235C57.8106 69.9602 61.188 66.3655 61.0825 62.0556C60.977 57.7457 57.4279 54.3205 53.1169 54.3682C50.2764 54.3997 47.6727 55.9574 46.3018 58.4454C44.931 60.9334 45.0053 63.9666 46.4962 66.3846C47.987 68.8025 50.6639 70.231 53.5025 70.1235Z" fill="url(#paint1_linear_43_2047)"/>
<path d="M118.657 73.2141C114.99 76.5504 112.688 77.4749 107.582 77.0413C103.894 76.7434 100.481 74.9763 98.1095 72.137C95.4176 68.9109 94.4082 64.8014 94.7829 60.6751C95.5789 51.9089 103.09 46.2168 111.717 47.0225C115.616 47.3866 119.865 49.0152 122.427 52.1281C122.561 52.3902 122.631 52.4992 122.694 52.7896C122.868 53.2073 123.44 53.3357 123.776 53.8122C124.972 55.5142 125.626 57.5042 126.022 59.5082C126.824 62.7106 126.217 69.9076 126.326 73.476C126.435 77.05 119.944 79.257 118.657 73.2141ZM116.076 55.9098L115.588 55.8689C115.132 55.8971 113.958 55.0196 113.357 54.8078C107.679 52.8049 102.971 56.2511 102.691 62.1816C102.349 69.4262 111.142 72.5259 115.908 67.8682C117.387 66.4171 118.21 64.4252 118.186 62.3534C118.184 60.8622 117.797 59.5443 117.278 58.1662C116.763 57.3262 115.881 56.8937 116.076 55.9098Z" fill="url(#paint2_linear_43_2047)"/>
<path d="M116.076 55.9098C117.26 54.0022 118.871 52.5259 121.261 52.657C121.682 52.6801 122.342 52.9077 122.694 52.7897C122.868 53.2073 123.44 53.3357 123.776 53.8122C124.972 55.5142 125.626 57.5042 126.022 59.5082C125.526 60.2881 125.636 62.4308 124.358 62.8247C123.519 62.5467 123.24 60.183 122.449 59.9242C120.333 59.2327 119.329 59.306 117.278 58.1662C116.763 57.3262 115.881 56.8937 116.076 55.9098Z" fill="#323B46"/>
<path d="M115.588 55.8689C115.126 55.1968 117.366 53.2002 118.016 52.856C119.581 52.0269 120.657 51.7059 122.427 52.128C122.561 52.3902 122.631 52.4992 122.694 52.7896C122.342 52.9077 121.682 52.6801 121.261 52.657C118.871 52.5259 117.26 54.0022 116.076 55.9098L115.588 55.8689Z" fill="#FBFBFC"/>
<path d="M148.175 46.6835C149.786 46.6113 152.445 47.3434 153.299 48.7471C155.579 52.486 152.383 55.4599 148.462 54.4857C146.849 54.0849 144.003 54.8213 142.67 55.7813C139.352 58.171 139.536 61.5301 139.534 65.1516L139.553 70.6858C139.557 71.3871 139.552 72.0767 139.536 72.7772C139.472 75.6349 137.494 77.5885 134.553 76.953C131.069 75.6863 131.609 72.8939 131.611 69.816L131.608 63.1486V55.7525C131.609 53.9667 131.383 50.938 132.174 49.3361C133.042 47.5785 135.96 47.0605 137.561 48.042C138.803 48.803 139.316 50.1033 139.613 51.4621C141.769 48.1836 144.359 47.0072 148.175 46.6835Z" fill="url(#paint3_linear_43_2047)"/>
<path d="M90.8588 46.6794C92.8936 46.8723 95.0152 47.1807 96.1116 49.1539C97.0665 50.8725 96.6059 53.0572 94.9178 54.1188C93.3664 55.0965 91.5405 54.4063 89.8353 54.4217C86.6201 54.4509 83.9286 55.9183 82.7216 59.001C81.8697 61.1771 81.9881 63.1695 81.9951 65.4687L82.0136 70.7888C82.0173 71.9699 82.1102 73.4154 81.7445 74.5289C81.0174 76.7423 78.6412 77.447 76.5874 76.8169C74.6693 75.8957 74.1514 74.5113 74.1361 72.4782C74.1158 69.7756 74.1229 67.0738 74.1246 64.3711L74.1236 56.2269C74.1244 54.7518 74.0976 53.216 74.1637 51.7447C74.1968 51.0074 74.3588 49.8846 74.7489 49.2709C75.8506 47.5376 78.5244 46.95 80.1965 48.1989C81.534 49.1575 81.8082 50.1109 82.0825 51.6109C83.9427 48.1211 87.1568 46.9867 90.8588 46.6794Z" fill="url(#paint4_linear_43_2047)"/>
<defs>
<linearGradient id="paint0_linear_43_2047" x1="170.614" y1="46.936" x2="170.614" y2="77.2555" gradientUnits="userSpaceOnUse">
<stop stop-color="#0E8CFB"/>
<stop offset="1" stop-color="#085395"/>
</linearGradient>
<linearGradient id="paint1_linear_43_2047" x1="52.8651" y1="46.7337" x2="52.8651" y2="77.2931" gradientUnits="userSpaceOnUse">
<stop stop-color="#0E8CFB"/>
<stop offset="1" stop-color="#085395"/>
</linearGradient>
<linearGradient id="paint2_linear_43_2047" x1="110.576" y1="46.9467" x2="110.576" y2="77.1412" gradientUnits="userSpaceOnUse">
<stop stop-color="#0E8CFB"/>
<stop offset="1" stop-color="#085395"/>
</linearGradient>
<linearGradient id="paint3_linear_43_2047" x1="142.82" y1="46.6786" x2="142.82" y2="77.0733" gradientUnits="userSpaceOnUse">
<stop stop-color="#FEC303"/>
<stop offset="1" stop-color="#987502"/>
</linearGradient>
<linearGradient id="paint4_linear_43_2047" x1="85.3606" y1="46.6794" x2="85.3606" y2="77.0377" gradientUnits="userSpaceOnUse">
<stop stop-color="#FEC303"/>
<stop offset="1" stop-color="#B38900"/>
</linearGradient>
</defs>
</svg>
